<mxfile host="app.diagrams.net" modified="2020-11-24T02:11:53.869Z" agent="5.0 (Windows NT 10.0; Win64; x64) AppleWebKit/537.36 (KHTML, like Gecko) Chrome/86.0.4240.198 Safari/537.36" etag="wSKq07lyzH-7UaAfbMTF" version="13.10.1" type="github">
  <diagram id="auROdRa1ODLx50EWRvjH" name="Page-1">
    <mxGraphModel dx="1038" dy="580" grid="1" gridSize="10" guides="1" tooltips="1" connect="1" arrows="1" fold="1" page="1" pageScale="1" pageWidth="827" pageHeight="1169" math="0" shadow="0">
      <root>
        <mxCell id="0" />
        <mxCell id="1" parent="0" />
        <mxCell id="sMAWAuY0yHRVoOCwFeGY-1" value="valentin.regions" style="shape=table;startSize=30;container=1;collapsible=1;childLayout=tableLayout;fixedRows=1;rowLines=0;fontStyle=1;align=center;resizeLast=1;" parent="1" vertex="1">
          <mxGeometry x="600" y="670" width="180" height="170" as="geometry" />
        </mxCell>
        <mxCell id="sMAWAuY0yHRVoOCwFeGY-2" value="" style="shape=partialRectangle;collapsible=0;dropTarget=0;pointerEvents=0;fillColor=none;top=0;left=0;bottom=0;right=0;points=[[0,0.5],[1,0.5]];portConstraint=eastwest;" parent="sMAWAuY0yHRVoOCwFeGY-1" vertex="1">
          <mxGeometry y="30" width="180" height="30" as="geometry" />
        </mxCell>
        <mxCell id="sMAWAuY0yHRVoOCwFeGY-3" value="PK" style="shape=partialRectangle;connectable=0;fillColor=none;top=0;left=0;bottom=0;right=0;fontStyle=1;overflow=hidden;" parent="sMAWAuY0yHRVoOCwFeGY-2" vertex="1">
          <mxGeometry width="60" height="30" as="geometry" />
        </mxCell>
        <mxCell id="sMAWAuY0yHRVoOCwFeGY-4" value="region_id" style="shape=partialRectangle;connectable=0;fillColor=none;top=0;left=0;bottom=0;right=0;align=left;spacingLeft=6;fontStyle=5;overflow=hidden;" parent="sMAWAuY0yHRVoOCwFeGY-2" vertex="1">
          <mxGeometry x="60" width="120" height="30" as="geometry" />
        </mxCell>
        <mxCell id="sMAWAuY0yHRVoOCwFeGY-5" value="" style="shape=partialRectangle;collapsible=0;dropTarget=0;pointerEvents=0;fillColor=none;top=0;left=0;bottom=1;right=0;points=[[0,0.5],[1,0.5]];portConstraint=eastwest;strokeColor=none;" parent="sMAWAuY0yHRVoOCwFeGY-1" vertex="1">
          <mxGeometry y="60" width="180" height="40" as="geometry" />
        </mxCell>
        <mxCell id="sMAWAuY0yHRVoOCwFeGY-6" value="PK" style="shape=partialRectangle;connectable=0;fillColor=none;top=0;left=0;bottom=0;right=0;fontStyle=1;overflow=hidden;" parent="sMAWAuY0yHRVoOCwFeGY-5" vertex="1">
          <mxGeometry width="60" height="40" as="geometry" />
        </mxCell>
        <mxCell id="sMAWAuY0yHRVoOCwFeGY-7" value="region_name" style="shape=partialRectangle;connectable=0;fillColor=none;top=0;left=0;bottom=0;right=0;align=left;spacingLeft=6;fontStyle=5;overflow=hidden;" parent="sMAWAuY0yHRVoOCwFeGY-5" vertex="1">
          <mxGeometry x="60" width="120" height="40" as="geometry" />
        </mxCell>
        <mxCell id="sMAWAuY0yHRVoOCwFeGY-8" value="" style="shape=partialRectangle;collapsible=0;dropTarget=0;pointerEvents=0;fillColor=none;top=0;left=0;bottom=0;right=0;points=[[0,0.5],[1,0.5]];portConstraint=eastwest;" parent="sMAWAuY0yHRVoOCwFeGY-1" vertex="1">
          <mxGeometry y="100" width="180" height="30" as="geometry" />
        </mxCell>
        <mxCell id="sMAWAuY0yHRVoOCwFeGY-9" value="" style="shape=partialRectangle;connectable=0;fillColor=none;top=0;left=0;bottom=0;right=0;editable=1;overflow=hidden;" parent="sMAWAuY0yHRVoOCwFeGY-8" vertex="1">
          <mxGeometry width="60" height="30" as="geometry" />
        </mxCell>
        <mxCell id="sMAWAuY0yHRVoOCwFeGY-10" value="" style="shape=partialRectangle;connectable=0;fillColor=none;top=0;left=0;bottom=0;right=0;align=left;spacingLeft=6;overflow=hidden;" parent="sMAWAuY0yHRVoOCwFeGY-8" vertex="1">
          <mxGeometry x="60" width="120" height="30" as="geometry" />
        </mxCell>
        <mxCell id="sMAWAuY0yHRVoOCwFeGY-11" value="" style="shape=partialRectangle;collapsible=0;dropTarget=0;pointerEvents=0;fillColor=none;top=0;left=0;bottom=0;right=0;points=[[0,0.5],[1,0.5]];portConstraint=eastwest;" parent="sMAWAuY0yHRVoOCwFeGY-1" vertex="1">
          <mxGeometry y="130" width="180" height="30" as="geometry" />
        </mxCell>
        <mxCell id="sMAWAuY0yHRVoOCwFeGY-12" value="" style="shape=partialRectangle;connectable=0;fillColor=none;top=0;left=0;bottom=0;right=0;editable=1;overflow=hidden;" parent="sMAWAuY0yHRVoOCwFeGY-11" vertex="1">
          <mxGeometry width="60" height="30" as="geometry" />
        </mxCell>
        <mxCell id="sMAWAuY0yHRVoOCwFeGY-13" value="" style="shape=partialRectangle;connectable=0;fillColor=none;top=0;left=0;bottom=0;right=0;align=left;spacingLeft=6;overflow=hidden;" parent="sMAWAuY0yHRVoOCwFeGY-11" vertex="1">
          <mxGeometry x="60" width="120" height="30" as="geometry" />
        </mxCell>
        <mxCell id="WiR1-KO9exxDyAQfKW_R-1" value="valentin.countries" style="shape=table;startSize=30;container=1;collapsible=1;childLayout=tableLayout;fixedRows=1;rowLines=0;fontStyle=1;align=center;resizeLast=1;" parent="1" vertex="1">
          <mxGeometry x="600" y="400" width="180" height="160" as="geometry" />
        </mxCell>
        <mxCell id="WiR1-KO9exxDyAQfKW_R-2" value="" style="shape=partialRectangle;collapsible=0;dropTarget=0;pointerEvents=0;fillColor=none;top=0;left=0;bottom=0;right=0;points=[[0,0.5],[1,0.5]];portConstraint=eastwest;" parent="WiR1-KO9exxDyAQfKW_R-1" vertex="1">
          <mxGeometry y="30" width="180" height="30" as="geometry" />
        </mxCell>
        <mxCell id="WiR1-KO9exxDyAQfKW_R-3" value="PK" style="shape=partialRectangle;connectable=0;fillColor=none;top=0;left=0;bottom=0;right=0;fontStyle=1;overflow=hidden;" parent="WiR1-KO9exxDyAQfKW_R-2" vertex="1">
          <mxGeometry width="60" height="30" as="geometry" />
        </mxCell>
        <mxCell id="WiR1-KO9exxDyAQfKW_R-4" value="country_id" style="shape=partialRectangle;connectable=0;fillColor=none;top=0;left=0;bottom=0;right=0;align=left;spacingLeft=6;fontStyle=5;overflow=hidden;" parent="WiR1-KO9exxDyAQfKW_R-2" vertex="1">
          <mxGeometry x="60" width="120" height="30" as="geometry" />
        </mxCell>
        <mxCell id="WiR1-KO9exxDyAQfKW_R-5" value="" style="shape=partialRectangle;collapsible=0;dropTarget=0;pointerEvents=0;fillColor=none;top=0;left=0;bottom=1;right=0;points=[[0,0.5],[1,0.5]];portConstraint=eastwest;strokeColor=none;" parent="WiR1-KO9exxDyAQfKW_R-1" vertex="1">
          <mxGeometry y="60" width="180" height="30" as="geometry" />
        </mxCell>
        <mxCell id="WiR1-KO9exxDyAQfKW_R-6" value="PK2" style="shape=partialRectangle;connectable=0;fillColor=none;top=0;left=0;bottom=0;right=0;fontStyle=1;overflow=hidden;" parent="WiR1-KO9exxDyAQfKW_R-5" vertex="1">
          <mxGeometry width="60" height="30" as="geometry" />
        </mxCell>
        <mxCell id="WiR1-KO9exxDyAQfKW_R-7" value="country_name" style="shape=partialRectangle;connectable=0;fillColor=none;top=0;left=0;bottom=0;right=0;align=left;spacingLeft=6;fontStyle=5;overflow=hidden;" parent="WiR1-KO9exxDyAQfKW_R-5" vertex="1">
          <mxGeometry x="60" width="120" height="30" as="geometry" />
        </mxCell>
        <mxCell id="WiR1-KO9exxDyAQfKW_R-8" value="" style="shape=partialRectangle;collapsible=0;dropTarget=0;pointerEvents=0;fillColor=none;top=0;left=0;bottom=0;right=0;points=[[0,0.5],[1,0.5]];portConstraint=eastwest;" parent="WiR1-KO9exxDyAQfKW_R-1" vertex="1">
          <mxGeometry y="90" width="180" height="30" as="geometry" />
        </mxCell>
        <mxCell id="WiR1-KO9exxDyAQfKW_R-9" value="FK" style="shape=partialRectangle;connectable=0;fillColor=none;top=0;left=0;bottom=0;right=0;editable=1;overflow=hidden;fontStyle=1" parent="WiR1-KO9exxDyAQfKW_R-8" vertex="1">
          <mxGeometry width="60" height="30" as="geometry" />
        </mxCell>
        <mxCell id="WiR1-KO9exxDyAQfKW_R-10" value="region_id" style="shape=partialRectangle;connectable=0;fillColor=none;top=0;left=0;bottom=0;right=0;align=left;spacingLeft=6;overflow=hidden;fontStyle=5" parent="WiR1-KO9exxDyAQfKW_R-8" vertex="1">
          <mxGeometry x="60" width="120" height="30" as="geometry" />
        </mxCell>
        <mxCell id="WiR1-KO9exxDyAQfKW_R-11" value="" style="shape=partialRectangle;collapsible=0;dropTarget=0;pointerEvents=0;fillColor=none;top=0;left=0;bottom=0;right=0;points=[[0,0.5],[1,0.5]];portConstraint=eastwest;" parent="WiR1-KO9exxDyAQfKW_R-1" vertex="1">
          <mxGeometry y="120" width="180" height="30" as="geometry" />
        </mxCell>
        <mxCell id="WiR1-KO9exxDyAQfKW_R-12" value="" style="shape=partialRectangle;connectable=0;fillColor=none;top=0;left=0;bottom=0;right=0;editable=1;overflow=hidden;" parent="WiR1-KO9exxDyAQfKW_R-11" vertex="1">
          <mxGeometry width="60" height="30" as="geometry" />
        </mxCell>
        <mxCell id="WiR1-KO9exxDyAQfKW_R-13" value="" style="shape=partialRectangle;connectable=0;fillColor=none;top=0;left=0;bottom=0;right=0;align=left;spacingLeft=6;overflow=hidden;" parent="WiR1-KO9exxDyAQfKW_R-11" vertex="1">
          <mxGeometry x="60" width="120" height="30" as="geometry" />
        </mxCell>
        <mxCell id="WiR1-KO9exxDyAQfKW_R-15" value="" style="edgeStyle=entityRelationEdgeStyle;fontSize=12;html=1;endArrow=ERoneToMany;exitX=0.313;exitY=0;exitDx=0;exitDy=0;exitPerimeter=0;" parent="1" edge="1" source="sMAWAuY0yHRVoOCwFeGY-1">
          <mxGeometry width="100" height="100" relative="1" as="geometry">
            <mxPoint x="660" y="660" as="sourcePoint" />
            <mxPoint x="720" y="560" as="targetPoint" />
          </mxGeometry>
        </mxCell>
        <mxCell id="WiR1-KO9exxDyAQfKW_R-16" value="valentin.locations" style="shape=table;startSize=30;container=1;collapsible=1;childLayout=tableLayout;fixedRows=1;rowLines=0;fontStyle=1;align=center;resizeLast=1;" parent="1" vertex="1">
          <mxGeometry x="600" y="60" width="180" height="220" as="geometry" />
        </mxCell>
        <mxCell id="WiR1-KO9exxDyAQfKW_R-17" value="" style="shape=partialRectangle;collapsible=0;dropTarget=0;pointerEvents=0;fillColor=none;top=0;left=0;bottom=0;right=0;points=[[0,0.5],[1,0.5]];portConstraint=eastwest;" parent="WiR1-KO9exxDyAQfKW_R-16" vertex="1">
          <mxGeometry y="30" width="180" height="30" as="geometry" />
        </mxCell>
        <mxCell id="WiR1-KO9exxDyAQfKW_R-18" value="PK1" style="shape=partialRectangle;connectable=0;fillColor=none;top=0;left=0;bottom=0;right=0;fontStyle=1;overflow=hidden;" parent="WiR1-KO9exxDyAQfKW_R-17" vertex="1">
          <mxGeometry width="60" height="30" as="geometry" />
        </mxCell>
        <mxCell id="WiR1-KO9exxDyAQfKW_R-19" value="location_id" style="shape=partialRectangle;connectable=0;fillColor=none;top=0;left=0;bottom=0;right=0;align=left;spacingLeft=6;fontStyle=5;overflow=hidden;" parent="WiR1-KO9exxDyAQfKW_R-17" vertex="1">
          <mxGeometry x="60" width="120" height="30" as="geometry" />
        </mxCell>
        <mxCell id="WiR1-KO9exxDyAQfKW_R-20" value="" style="shape=partialRectangle;collapsible=0;dropTarget=0;pointerEvents=0;fillColor=none;top=0;left=0;bottom=1;right=0;points=[[0,0.5],[1,0.5]];portConstraint=eastwest;strokeColor=none;" parent="WiR1-KO9exxDyAQfKW_R-16" vertex="1">
          <mxGeometry y="60" width="180" height="30" as="geometry" />
        </mxCell>
        <mxCell id="WiR1-KO9exxDyAQfKW_R-21" value="PK2" style="shape=partialRectangle;connectable=0;fillColor=none;top=0;left=0;bottom=0;right=0;fontStyle=1;overflow=hidden;" parent="WiR1-KO9exxDyAQfKW_R-20" vertex="1">
          <mxGeometry width="60" height="30" as="geometry" />
        </mxCell>
        <mxCell id="WiR1-KO9exxDyAQfKW_R-22" value="street_adress" style="shape=partialRectangle;connectable=0;fillColor=none;top=0;left=0;bottom=0;right=0;align=left;spacingLeft=6;fontStyle=5;overflow=hidden;" parent="WiR1-KO9exxDyAQfKW_R-20" vertex="1">
          <mxGeometry x="60" width="120" height="30" as="geometry" />
        </mxCell>
        <mxCell id="WiR1-KO9exxDyAQfKW_R-23" value="" style="shape=partialRectangle;collapsible=0;dropTarget=0;pointerEvents=0;fillColor=none;top=0;left=0;bottom=0;right=0;points=[[0,0.5],[1,0.5]];portConstraint=eastwest;" parent="WiR1-KO9exxDyAQfKW_R-16" vertex="1">
          <mxGeometry y="90" width="180" height="30" as="geometry" />
        </mxCell>
        <mxCell id="WiR1-KO9exxDyAQfKW_R-24" value="PK3" style="shape=partialRectangle;connectable=0;fillColor=none;top=0;left=0;bottom=0;right=0;editable=1;overflow=hidden;fontStyle=1" parent="WiR1-KO9exxDyAQfKW_R-23" vertex="1">
          <mxGeometry width="60" height="30" as="geometry" />
        </mxCell>
        <mxCell id="WiR1-KO9exxDyAQfKW_R-25" value="postal_code" style="shape=partialRectangle;connectable=0;fillColor=none;top=0;left=0;bottom=0;right=0;align=left;spacingLeft=6;overflow=hidden;fontStyle=5" parent="WiR1-KO9exxDyAQfKW_R-23" vertex="1">
          <mxGeometry x="60" width="120" height="30" as="geometry" />
        </mxCell>
        <mxCell id="WiR1-KO9exxDyAQfKW_R-29" value="" style="shape=partialRectangle;collapsible=0;dropTarget=0;pointerEvents=0;fillColor=none;top=0;left=0;bottom=1;right=0;points=[[0,0.5],[1,0.5]];portConstraint=eastwest;strokeColor=none;" parent="WiR1-KO9exxDyAQfKW_R-16" vertex="1">
          <mxGeometry y="120" width="180" height="30" as="geometry" />
        </mxCell>
        <mxCell id="WiR1-KO9exxDyAQfKW_R-30" value="PK4" style="shape=partialRectangle;connectable=0;fillColor=none;top=0;left=0;bottom=0;right=0;fontStyle=1;overflow=hidden;" parent="WiR1-KO9exxDyAQfKW_R-29" vertex="1">
          <mxGeometry width="60" height="30" as="geometry" />
        </mxCell>
        <mxCell id="WiR1-KO9exxDyAQfKW_R-31" value="city" style="shape=partialRectangle;connectable=0;fillColor=none;top=0;left=0;bottom=0;right=0;align=left;spacingLeft=6;fontStyle=5;overflow=hidden;" parent="WiR1-KO9exxDyAQfKW_R-29" vertex="1">
          <mxGeometry x="60" width="120" height="30" as="geometry" />
        </mxCell>
        <mxCell id="WiR1-KO9exxDyAQfKW_R-26" value="" style="shape=partialRectangle;collapsible=0;dropTarget=0;pointerEvents=0;fillColor=none;top=0;left=0;bottom=0;right=0;points=[[0,0.5],[1,0.5]];portConstraint=eastwest;strokeColor=none;" parent="WiR1-KO9exxDyAQfKW_R-16" vertex="1">
          <mxGeometry y="150" width="180" height="30" as="geometry" />
        </mxCell>
        <mxCell id="WiR1-KO9exxDyAQfKW_R-27" value="PK5" style="shape=partialRectangle;connectable=0;fillColor=none;top=0;left=0;bottom=0;right=0;editable=1;overflow=hidden;fontStyle=1" parent="WiR1-KO9exxDyAQfKW_R-26" vertex="1">
          <mxGeometry width="60" height="30" as="geometry" />
        </mxCell>
        <mxCell id="WiR1-KO9exxDyAQfKW_R-28" value="state_province" style="shape=partialRectangle;connectable=0;fillColor=none;top=0;left=0;bottom=0;right=0;align=left;spacingLeft=6;overflow=hidden;fontStyle=5" parent="WiR1-KO9exxDyAQfKW_R-26" vertex="1">
          <mxGeometry x="60" width="120" height="30" as="geometry" />
        </mxCell>
        <mxCell id="WiR1-KO9exxDyAQfKW_R-33" value="" style="shape=partialRectangle;collapsible=0;dropTarget=0;pointerEvents=0;fillColor=none;top=0;left=0;bottom=1;right=0;points=[[0,0.5],[1,0.5]];portConstraint=eastwest;strokeColor=none;" parent="WiR1-KO9exxDyAQfKW_R-16" vertex="1">
          <mxGeometry y="180" width="180" height="30" as="geometry" />
        </mxCell>
        <mxCell id="WiR1-KO9exxDyAQfKW_R-34" value="FK1" style="shape=partialRectangle;connectable=0;fillColor=none;top=0;left=0;bottom=0;right=0;fontStyle=1;overflow=hidden;" parent="WiR1-KO9exxDyAQfKW_R-33" vertex="1">
          <mxGeometry width="60" height="30" as="geometry" />
        </mxCell>
        <mxCell id="WiR1-KO9exxDyAQfKW_R-35" value="region_id" style="shape=partialRectangle;connectable=0;fillColor=none;top=0;left=0;bottom=0;right=0;align=left;spacingLeft=6;fontStyle=5;overflow=hidden;" parent="WiR1-KO9exxDyAQfKW_R-33" vertex="1">
          <mxGeometry x="60" width="120" height="30" as="geometry" />
        </mxCell>
        <mxCell id="WiR1-KO9exxDyAQfKW_R-36" value="valentin.departments" style="shape=table;startSize=30;container=1;collapsible=1;childLayout=tableLayout;fixedRows=1;rowLines=0;fontStyle=1;align=center;resizeLast=1;" parent="1" vertex="1">
          <mxGeometry x="280" y="80" width="180" height="200" as="geometry" />
        </mxCell>
        <mxCell id="WiR1-KO9exxDyAQfKW_R-37" value="" style="shape=partialRectangle;collapsible=0;dropTarget=0;pointerEvents=0;fillColor=none;top=0;left=0;bottom=0;right=0;points=[[0,0.5],[1,0.5]];portConstraint=eastwest;" parent="WiR1-KO9exxDyAQfKW_R-36" vertex="1">
          <mxGeometry y="30" width="180" height="30" as="geometry" />
        </mxCell>
        <mxCell id="WiR1-KO9exxDyAQfKW_R-38" value="PK1" style="shape=partialRectangle;connectable=0;fillColor=none;top=0;left=0;bottom=0;right=0;fontStyle=1;overflow=hidden;" parent="WiR1-KO9exxDyAQfKW_R-37" vertex="1">
          <mxGeometry width="60" height="30" as="geometry" />
        </mxCell>
        <mxCell id="WiR1-KO9exxDyAQfKW_R-39" value="department_id" style="shape=partialRectangle;connectable=0;fillColor=none;top=0;left=0;bottom=0;right=0;align=left;spacingLeft=6;fontStyle=5;overflow=hidden;" parent="WiR1-KO9exxDyAQfKW_R-37" vertex="1">
          <mxGeometry x="60" width="120" height="30" as="geometry" />
        </mxCell>
        <mxCell id="WiR1-KO9exxDyAQfKW_R-40" value="" style="shape=partialRectangle;collapsible=0;dropTarget=0;pointerEvents=0;fillColor=none;top=0;left=0;bottom=1;right=0;points=[[0,0.5],[1,0.5]];portConstraint=eastwest;strokeColor=none;" parent="WiR1-KO9exxDyAQfKW_R-36" vertex="1">
          <mxGeometry y="60" width="180" height="30" as="geometry" />
        </mxCell>
        <mxCell id="WiR1-KO9exxDyAQfKW_R-41" value="PK2" style="shape=partialRectangle;connectable=0;fillColor=none;top=0;left=0;bottom=0;right=0;fontStyle=1;overflow=hidden;" parent="WiR1-KO9exxDyAQfKW_R-40" vertex="1">
          <mxGeometry width="60" height="30" as="geometry" />
        </mxCell>
        <mxCell id="WiR1-KO9exxDyAQfKW_R-42" value="department_name" style="shape=partialRectangle;connectable=0;fillColor=none;top=0;left=0;bottom=0;right=0;align=left;spacingLeft=6;fontStyle=5;overflow=hidden;" parent="WiR1-KO9exxDyAQfKW_R-40" vertex="1">
          <mxGeometry x="60" width="120" height="30" as="geometry" />
        </mxCell>
        <mxCell id="WiR1-KO9exxDyAQfKW_R-43" value="" style="shape=partialRectangle;collapsible=0;dropTarget=0;pointerEvents=0;fillColor=none;top=0;left=0;bottom=0;right=0;points=[[0,0.5],[1,0.5]];portConstraint=eastwest;" parent="WiR1-KO9exxDyAQfKW_R-36" vertex="1">
          <mxGeometry y="90" width="180" height="30" as="geometry" />
        </mxCell>
        <mxCell id="WiR1-KO9exxDyAQfKW_R-44" value="FK1" style="shape=partialRectangle;connectable=0;fillColor=none;top=0;left=0;bottom=0;right=0;editable=1;overflow=hidden;fontStyle=1" parent="WiR1-KO9exxDyAQfKW_R-43" vertex="1">
          <mxGeometry width="60" height="30" as="geometry" />
        </mxCell>
        <mxCell id="WiR1-KO9exxDyAQfKW_R-45" value="location_id" style="shape=partialRectangle;connectable=0;fillColor=none;top=0;left=0;bottom=0;right=0;align=left;spacingLeft=6;overflow=hidden;fontStyle=5" parent="WiR1-KO9exxDyAQfKW_R-43" vertex="1">
          <mxGeometry x="60" width="120" height="30" as="geometry" />
        </mxCell>
        <mxCell id="WiR1-KO9exxDyAQfKW_R-46" value="" style="shape=partialRectangle;collapsible=0;dropTarget=0;pointerEvents=0;fillColor=none;top=0;left=0;bottom=1;right=0;points=[[0,0.5],[1,0.5]];portConstraint=eastwest;strokeColor=none;" parent="WiR1-KO9exxDyAQfKW_R-36" vertex="1">
          <mxGeometry y="120" width="180" height="30" as="geometry" />
        </mxCell>
        <mxCell id="WiR1-KO9exxDyAQfKW_R-47" value="PK2" style="shape=partialRectangle;connectable=0;fillColor=none;top=0;left=0;bottom=0;right=0;fontStyle=1;overflow=hidden;" parent="WiR1-KO9exxDyAQfKW_R-46" vertex="1">
          <mxGeometry width="60" height="30" as="geometry" />
        </mxCell>
        <mxCell id="WiR1-KO9exxDyAQfKW_R-48" value="manager_id" style="shape=partialRectangle;connectable=0;fillColor=none;top=0;left=0;bottom=0;right=0;align=left;spacingLeft=6;fontStyle=5;overflow=hidden;" parent="WiR1-KO9exxDyAQfKW_R-46" vertex="1">
          <mxGeometry x="60" width="120" height="30" as="geometry" />
        </mxCell>
        <mxCell id="WiR1-KO9exxDyAQfKW_R-49" value="" style="shape=partialRectangle;collapsible=0;dropTarget=0;pointerEvents=0;fillColor=none;top=0;left=0;bottom=0;right=0;points=[[0,0.5],[1,0.5]];portConstraint=eastwest;strokeColor=none;" parent="WiR1-KO9exxDyAQfKW_R-36" vertex="1">
          <mxGeometry y="150" width="180" height="30" as="geometry" />
        </mxCell>
        <mxCell id="WiR1-KO9exxDyAQfKW_R-50" value="" style="shape=partialRectangle;connectable=0;fillColor=none;top=0;left=0;bottom=0;right=0;editable=1;overflow=hidden;fontStyle=1" parent="WiR1-KO9exxDyAQfKW_R-49" vertex="1">
          <mxGeometry width="60" height="30" as="geometry" />
        </mxCell>
        <mxCell id="WiR1-KO9exxDyAQfKW_R-51" value="" style="shape=partialRectangle;connectable=0;fillColor=none;top=0;left=0;bottom=0;right=0;align=left;spacingLeft=6;overflow=hidden;fontStyle=5" parent="WiR1-KO9exxDyAQfKW_R-49" vertex="1">
          <mxGeometry x="60" width="120" height="30" as="geometry" />
        </mxCell>
        <mxCell id="WiR1-KO9exxDyAQfKW_R-52" value="" style="shape=partialRectangle;collapsible=0;dropTarget=0;pointerEvents=0;fillColor=none;top=0;left=0;bottom=1;right=0;points=[[0,0.5],[1,0.5]];portConstraint=eastwest;strokeColor=none;" parent="WiR1-KO9exxDyAQfKW_R-36" vertex="1">
          <mxGeometry y="180" width="180" height="20" as="geometry" />
        </mxCell>
        <mxCell id="WiR1-KO9exxDyAQfKW_R-53" value="" style="shape=partialRectangle;connectable=0;fillColor=none;top=0;left=0;bottom=0;right=0;fontStyle=1;overflow=hidden;" parent="WiR1-KO9exxDyAQfKW_R-52" vertex="1">
          <mxGeometry width="60" height="20" as="geometry" />
        </mxCell>
        <mxCell id="WiR1-KO9exxDyAQfKW_R-54" value="" style="shape=partialRectangle;connectable=0;fillColor=none;top=0;left=0;bottom=0;right=0;align=left;spacingLeft=6;fontStyle=5;overflow=hidden;" parent="WiR1-KO9exxDyAQfKW_R-52" vertex="1">
          <mxGeometry x="60" width="120" height="20" as="geometry" />
        </mxCell>
        <mxCell id="WiR1-KO9exxDyAQfKW_R-55" value="valentin.employees" style="shape=table;startSize=30;container=1;collapsible=1;childLayout=tableLayout;fixedRows=1;rowLines=0;fontStyle=1;align=center;resizeLast=1;" parent="1" vertex="1">
          <mxGeometry x="310" y="460" width="180" height="390" as="geometry" />
        </mxCell>
        <mxCell id="WiR1-KO9exxDyAQfKW_R-56" value="" style="shape=partialRectangle;collapsible=0;dropTarget=0;pointerEvents=0;fillColor=none;top=0;left=0;bottom=0;right=0;points=[[0,0.5],[1,0.5]];portConstraint=eastwest;" parent="WiR1-KO9exxDyAQfKW_R-55" vertex="1">
          <mxGeometry y="30" width="180" height="30" as="geometry" />
        </mxCell>
        <mxCell id="WiR1-KO9exxDyAQfKW_R-57" value="PK1" style="shape=partialRectangle;connectable=0;fillColor=none;top=0;left=0;bottom=0;right=0;fontStyle=1;overflow=hidden;" parent="WiR1-KO9exxDyAQfKW_R-56" vertex="1">
          <mxGeometry width="60" height="30" as="geometry" />
        </mxCell>
        <mxCell id="WiR1-KO9exxDyAQfKW_R-58" value="employee_id" style="shape=partialRectangle;connectable=0;fillColor=none;top=0;left=0;bottom=0;right=0;align=left;spacingLeft=6;fontStyle=5;overflow=hidden;" parent="WiR1-KO9exxDyAQfKW_R-56" vertex="1">
          <mxGeometry x="60" width="120" height="30" as="geometry" />
        </mxCell>
        <mxCell id="WiR1-KO9exxDyAQfKW_R-59" value="" style="shape=partialRectangle;collapsible=0;dropTarget=0;pointerEvents=0;fillColor=none;top=0;left=0;bottom=1;right=0;points=[[0,0.5],[1,0.5]];portConstraint=eastwest;strokeColor=none;" parent="WiR1-KO9exxDyAQfKW_R-55" vertex="1">
          <mxGeometry y="60" width="180" height="30" as="geometry" />
        </mxCell>
        <mxCell id="WiR1-KO9exxDyAQfKW_R-60" value="PK2" style="shape=partialRectangle;connectable=0;fillColor=none;top=0;left=0;bottom=0;right=0;fontStyle=1;overflow=hidden;" parent="WiR1-KO9exxDyAQfKW_R-59" vertex="1">
          <mxGeometry width="60" height="30" as="geometry" />
        </mxCell>
        <mxCell id="WiR1-KO9exxDyAQfKW_R-61" value="first_name" style="shape=partialRectangle;connectable=0;fillColor=none;top=0;left=0;bottom=0;right=0;align=left;spacingLeft=6;fontStyle=5;overflow=hidden;" parent="WiR1-KO9exxDyAQfKW_R-59" vertex="1">
          <mxGeometry x="60" width="120" height="30" as="geometry" />
        </mxCell>
        <mxCell id="WiR1-KO9exxDyAQfKW_R-62" value="" style="shape=partialRectangle;collapsible=0;dropTarget=0;pointerEvents=0;fillColor=none;top=0;left=0;bottom=0;right=0;points=[[0,0.5],[1,0.5]];portConstraint=eastwest;" parent="WiR1-KO9exxDyAQfKW_R-55" vertex="1">
          <mxGeometry y="90" width="180" height="30" as="geometry" />
        </mxCell>
        <mxCell id="WiR1-KO9exxDyAQfKW_R-63" value="PK3" style="shape=partialRectangle;connectable=0;fillColor=none;top=0;left=0;bottom=0;right=0;editable=1;overflow=hidden;fontStyle=1" parent="WiR1-KO9exxDyAQfKW_R-62" vertex="1">
          <mxGeometry width="60" height="30" as="geometry" />
        </mxCell>
        <mxCell id="WiR1-KO9exxDyAQfKW_R-64" value="last_name" style="shape=partialRectangle;connectable=0;fillColor=none;top=0;left=0;bottom=0;right=0;align=left;spacingLeft=6;overflow=hidden;fontStyle=5" parent="WiR1-KO9exxDyAQfKW_R-62" vertex="1">
          <mxGeometry x="60" width="120" height="30" as="geometry" />
        </mxCell>
        <mxCell id="WiR1-KO9exxDyAQfKW_R-65" value="" style="shape=partialRectangle;collapsible=0;dropTarget=0;pointerEvents=0;fillColor=none;top=0;left=0;bottom=1;right=0;points=[[0,0.5],[1,0.5]];portConstraint=eastwest;strokeColor=none;" parent="WiR1-KO9exxDyAQfKW_R-55" vertex="1">
          <mxGeometry y="120" width="180" height="30" as="geometry" />
        </mxCell>
        <mxCell id="WiR1-KO9exxDyAQfKW_R-66" value="PK4" style="shape=partialRectangle;connectable=0;fillColor=none;top=0;left=0;bottom=0;right=0;fontStyle=1;overflow=hidden;" parent="WiR1-KO9exxDyAQfKW_R-65" vertex="1">
          <mxGeometry width="60" height="30" as="geometry" />
        </mxCell>
        <mxCell id="WiR1-KO9exxDyAQfKW_R-67" value="email" style="shape=partialRectangle;connectable=0;fillColor=none;top=0;left=0;bottom=0;right=0;align=left;spacingLeft=6;fontStyle=5;overflow=hidden;" parent="WiR1-KO9exxDyAQfKW_R-65" vertex="1">
          <mxGeometry x="60" width="120" height="30" as="geometry" />
        </mxCell>
        <mxCell id="WiR1-KO9exxDyAQfKW_R-68" value="" style="shape=partialRectangle;collapsible=0;dropTarget=0;pointerEvents=0;fillColor=none;top=0;left=0;bottom=0;right=0;points=[[0,0.5],[1,0.5]];portConstraint=eastwest;strokeColor=none;" parent="WiR1-KO9exxDyAQfKW_R-55" vertex="1">
          <mxGeometry y="150" width="180" height="30" as="geometry" />
        </mxCell>
        <mxCell id="WiR1-KO9exxDyAQfKW_R-69" value="PK5" style="shape=partialRectangle;connectable=0;fillColor=none;top=0;left=0;bottom=0;right=0;editable=1;overflow=hidden;fontStyle=1" parent="WiR1-KO9exxDyAQfKW_R-68" vertex="1">
          <mxGeometry width="60" height="30" as="geometry" />
        </mxCell>
        <mxCell id="WiR1-KO9exxDyAQfKW_R-70" value="phone_number" style="shape=partialRectangle;connectable=0;fillColor=none;top=0;left=0;bottom=0;right=0;align=left;spacingLeft=6;overflow=hidden;fontStyle=5" parent="WiR1-KO9exxDyAQfKW_R-68" vertex="1">
          <mxGeometry x="60" width="120" height="30" as="geometry" />
        </mxCell>
        <mxCell id="WiR1-KO9exxDyAQfKW_R-71" value="" style="shape=partialRectangle;collapsible=0;dropTarget=0;pointerEvents=0;fillColor=none;top=0;left=0;bottom=1;right=0;points=[[0,0.5],[1,0.5]];portConstraint=eastwest;strokeColor=none;" parent="WiR1-KO9exxDyAQfKW_R-55" vertex="1">
          <mxGeometry y="180" width="180" height="30" as="geometry" />
        </mxCell>
        <mxCell id="WiR1-KO9exxDyAQfKW_R-72" value="PK6" style="shape=partialRectangle;connectable=0;fillColor=none;top=0;left=0;bottom=0;right=0;fontStyle=1;overflow=hidden;" parent="WiR1-KO9exxDyAQfKW_R-71" vertex="1">
          <mxGeometry width="60" height="30" as="geometry" />
        </mxCell>
        <mxCell id="WiR1-KO9exxDyAQfKW_R-73" value="hire_date" style="shape=partialRectangle;connectable=0;fillColor=none;top=0;left=0;bottom=0;right=0;align=left;spacingLeft=6;fontStyle=5;overflow=hidden;" parent="WiR1-KO9exxDyAQfKW_R-71" vertex="1">
          <mxGeometry x="60" width="120" height="30" as="geometry" />
        </mxCell>
        <mxCell id="WiR1-KO9exxDyAQfKW_R-74" value="" style="shape=partialRectangle;collapsible=0;dropTarget=0;pointerEvents=0;fillColor=none;top=0;left=0;bottom=0;right=0;points=[[0,0.5],[1,0.5]];portConstraint=eastwest;strokeColor=none;" parent="WiR1-KO9exxDyAQfKW_R-55" vertex="1">
          <mxGeometry y="210" width="180" height="30" as="geometry" />
        </mxCell>
        <mxCell id="WiR1-KO9exxDyAQfKW_R-75" value="FK1" style="shape=partialRectangle;connectable=0;fillColor=none;top=0;left=0;bottom=0;right=0;editable=1;overflow=hidden;fontStyle=1" parent="WiR1-KO9exxDyAQfKW_R-74" vertex="1">
          <mxGeometry width="60" height="30" as="geometry" />
        </mxCell>
        <mxCell id="WiR1-KO9exxDyAQfKW_R-76" value="job_id" style="shape=partialRectangle;connectable=0;fillColor=none;top=0;left=0;bottom=0;right=0;align=left;spacingLeft=6;overflow=hidden;fontStyle=5" parent="WiR1-KO9exxDyAQfKW_R-74" vertex="1">
          <mxGeometry x="60" width="120" height="30" as="geometry" />
        </mxCell>
        <mxCell id="WiR1-KO9exxDyAQfKW_R-77" value="" style="shape=partialRectangle;collapsible=0;dropTarget=0;pointerEvents=0;fillColor=none;top=0;left=0;bottom=0;right=0;points=[[0,0.5],[1,0.5]];portConstraint=eastwest;strokeColor=none;" parent="WiR1-KO9exxDyAQfKW_R-55" vertex="1">
          <mxGeometry y="240" width="180" height="30" as="geometry" />
        </mxCell>
        <mxCell id="WiR1-KO9exxDyAQfKW_R-78" value="PK7" style="shape=partialRectangle;connectable=0;fillColor=none;top=0;left=0;bottom=0;right=0;editable=1;overflow=hidden;fontStyle=1" parent="WiR1-KO9exxDyAQfKW_R-77" vertex="1">
          <mxGeometry width="60" height="30" as="geometry" />
        </mxCell>
        <mxCell id="WiR1-KO9exxDyAQfKW_R-79" value="salary" style="shape=partialRectangle;connectable=0;fillColor=none;top=0;left=0;bottom=0;right=0;align=left;spacingLeft=6;overflow=hidden;fontStyle=5" parent="WiR1-KO9exxDyAQfKW_R-77" vertex="1">
          <mxGeometry x="60" width="120" height="30" as="geometry" />
        </mxCell>
        <mxCell id="WiR1-KO9exxDyAQfKW_R-80" value="" style="shape=partialRectangle;collapsible=0;dropTarget=0;pointerEvents=0;fillColor=none;top=0;left=0;bottom=0;right=0;points=[[0,0.5],[1,0.5]];portConstraint=eastwest;strokeColor=none;" parent="WiR1-KO9exxDyAQfKW_R-55" vertex="1">
          <mxGeometry y="270" width="180" height="30" as="geometry" />
        </mxCell>
        <mxCell id="WiR1-KO9exxDyAQfKW_R-81" value="PK8" style="shape=partialRectangle;connectable=0;fillColor=none;top=0;left=0;bottom=0;right=0;editable=1;overflow=hidden;fontStyle=1" parent="WiR1-KO9exxDyAQfKW_R-80" vertex="1">
          <mxGeometry width="60" height="30" as="geometry" />
        </mxCell>
        <mxCell id="WiR1-KO9exxDyAQfKW_R-82" value="phone_number" style="shape=partialRectangle;connectable=0;fillColor=none;top=0;left=0;bottom=0;right=0;align=left;spacingLeft=6;overflow=hidden;fontStyle=5" parent="WiR1-KO9exxDyAQfKW_R-80" vertex="1">
          <mxGeometry x="60" width="120" height="30" as="geometry" />
        </mxCell>
        <mxCell id="WiR1-KO9exxDyAQfKW_R-83" value="" style="shape=partialRectangle;collapsible=0;dropTarget=0;pointerEvents=0;fillColor=none;top=0;left=0;bottom=0;right=0;points=[[0,0.5],[1,0.5]];portConstraint=eastwest;strokeColor=none;" parent="WiR1-KO9exxDyAQfKW_R-55" vertex="1">
          <mxGeometry y="300" width="180" height="30" as="geometry" />
        </mxCell>
        <mxCell id="WiR1-KO9exxDyAQfKW_R-84" value="PK8" style="shape=partialRectangle;connectable=0;fillColor=none;top=0;left=0;bottom=0;right=0;editable=1;overflow=hidden;fontStyle=1" parent="WiR1-KO9exxDyAQfKW_R-83" vertex="1">
          <mxGeometry width="60" height="30" as="geometry" />
        </mxCell>
        <mxCell id="WiR1-KO9exxDyAQfKW_R-85" value="commission_pct" style="shape=partialRectangle;connectable=0;fillColor=none;top=0;left=0;bottom=0;right=0;align=left;spacingLeft=6;overflow=hidden;fontStyle=5" parent="WiR1-KO9exxDyAQfKW_R-83" vertex="1">
          <mxGeometry x="60" width="120" height="30" as="geometry" />
        </mxCell>
        <mxCell id="WiR1-KO9exxDyAQfKW_R-86" value="" style="shape=partialRectangle;collapsible=0;dropTarget=0;pointerEvents=0;fillColor=none;top=0;left=0;bottom=0;right=0;points=[[0,0.5],[1,0.5]];portConstraint=eastwest;strokeColor=none;" parent="WiR1-KO9exxDyAQfKW_R-55" vertex="1">
          <mxGeometry y="330" width="180" height="30" as="geometry" />
        </mxCell>
        <mxCell id="WiR1-KO9exxDyAQfKW_R-87" value="FK8" style="shape=partialRectangle;connectable=0;fillColor=none;top=0;left=0;bottom=0;right=0;editable=1;overflow=hidden;fontStyle=1" parent="WiR1-KO9exxDyAQfKW_R-86" vertex="1">
          <mxGeometry width="60" height="30" as="geometry" />
        </mxCell>
        <mxCell id="WiR1-KO9exxDyAQfKW_R-88" value="manager_id" style="shape=partialRectangle;connectable=0;fillColor=none;top=0;left=0;bottom=0;right=0;align=left;spacingLeft=6;overflow=hidden;fontStyle=5" parent="WiR1-KO9exxDyAQfKW_R-86" vertex="1">
          <mxGeometry x="60" width="120" height="30" as="geometry" />
        </mxCell>
        <mxCell id="WiR1-KO9exxDyAQfKW_R-89" value="" style="shape=partialRectangle;collapsible=0;dropTarget=0;pointerEvents=0;fillColor=none;top=0;left=0;bottom=0;right=0;points=[[0,0.5],[1,0.5]];portConstraint=eastwest;strokeColor=none;" parent="WiR1-KO9exxDyAQfKW_R-55" vertex="1">
          <mxGeometry y="360" width="180" height="30" as="geometry" />
        </mxCell>
        <mxCell id="WiR1-KO9exxDyAQfKW_R-90" value="FK8" style="shape=partialRectangle;connectable=0;fillColor=none;top=0;left=0;bottom=0;right=0;editable=1;overflow=hidden;fontStyle=1" parent="WiR1-KO9exxDyAQfKW_R-89" vertex="1">
          <mxGeometry width="60" height="30" as="geometry" />
        </mxCell>
        <mxCell id="WiR1-KO9exxDyAQfKW_R-91" value="department_id" style="shape=partialRectangle;connectable=0;fillColor=none;top=0;left=0;bottom=0;right=0;align=left;spacingLeft=6;overflow=hidden;fontStyle=5" parent="WiR1-KO9exxDyAQfKW_R-89" vertex="1">
          <mxGeometry x="60" width="120" height="30" as="geometry" />
        </mxCell>
        <mxCell id="WiR1-KO9exxDyAQfKW_R-92" value="valentin.job_history" style="shape=table;startSize=30;container=1;collapsible=1;childLayout=tableLayout;fixedRows=1;rowLines=0;fontStyle=1;align=center;resizeLast=1;" parent="1" vertex="1">
          <mxGeometry x="30" y="320" width="180" height="200" as="geometry" />
        </mxCell>
        <mxCell id="WiR1-KO9exxDyAQfKW_R-93" value="" style="shape=partialRectangle;collapsible=0;dropTarget=0;pointerEvents=0;fillColor=none;top=0;left=0;bottom=0;right=0;points=[[0,0.5],[1,0.5]];portConstraint=eastwest;" parent="WiR1-KO9exxDyAQfKW_R-92" vertex="1">
          <mxGeometry y="30" width="180" height="30" as="geometry" />
        </mxCell>
        <mxCell id="WiR1-KO9exxDyAQfKW_R-94" value="FK1" style="shape=partialRectangle;connectable=0;fillColor=none;top=0;left=0;bottom=0;right=0;fontStyle=1;overflow=hidden;" parent="WiR1-KO9exxDyAQfKW_R-93" vertex="1">
          <mxGeometry width="60" height="30" as="geometry" />
        </mxCell>
        <mxCell id="WiR1-KO9exxDyAQfKW_R-95" value="employee_id" style="shape=partialRectangle;connectable=0;fillColor=none;top=0;left=0;bottom=0;right=0;align=left;spacingLeft=6;fontStyle=5;overflow=hidden;" parent="WiR1-KO9exxDyAQfKW_R-93" vertex="1">
          <mxGeometry x="60" width="120" height="30" as="geometry" />
        </mxCell>
        <mxCell id="WiR1-KO9exxDyAQfKW_R-96" value="" style="shape=partialRectangle;collapsible=0;dropTarget=0;pointerEvents=0;fillColor=none;top=0;left=0;bottom=1;right=0;points=[[0,0.5],[1,0.5]];portConstraint=eastwest;strokeColor=none;" parent="WiR1-KO9exxDyAQfKW_R-92" vertex="1">
          <mxGeometry y="60" width="180" height="30" as="geometry" />
        </mxCell>
        <mxCell id="WiR1-KO9exxDyAQfKW_R-97" value="PK1" style="shape=partialRectangle;connectable=0;fillColor=none;top=0;left=0;bottom=0;right=0;fontStyle=1;overflow=hidden;" parent="WiR1-KO9exxDyAQfKW_R-96" vertex="1">
          <mxGeometry width="60" height="30" as="geometry" />
        </mxCell>
        <mxCell id="WiR1-KO9exxDyAQfKW_R-98" value="start_date" style="shape=partialRectangle;connectable=0;fillColor=none;top=0;left=0;bottom=0;right=0;align=left;spacingLeft=6;fontStyle=5;overflow=hidden;" parent="WiR1-KO9exxDyAQfKW_R-96" vertex="1">
          <mxGeometry x="60" width="120" height="30" as="geometry" />
        </mxCell>
        <mxCell id="WiR1-KO9exxDyAQfKW_R-99" value="" style="shape=partialRectangle;collapsible=0;dropTarget=0;pointerEvents=0;fillColor=none;top=0;left=0;bottom=0;right=0;points=[[0,0.5],[1,0.5]];portConstraint=eastwest;" parent="WiR1-KO9exxDyAQfKW_R-92" vertex="1">
          <mxGeometry y="90" width="180" height="30" as="geometry" />
        </mxCell>
        <mxCell id="WiR1-KO9exxDyAQfKW_R-100" value="PK3" style="shape=partialRectangle;connectable=0;fillColor=none;top=0;left=0;bottom=0;right=0;editable=1;overflow=hidden;fontStyle=1" parent="WiR1-KO9exxDyAQfKW_R-99" vertex="1">
          <mxGeometry width="60" height="30" as="geometry" />
        </mxCell>
        <mxCell id="WiR1-KO9exxDyAQfKW_R-101" value="end_date" style="shape=partialRectangle;connectable=0;fillColor=none;top=0;left=0;bottom=0;right=0;align=left;spacingLeft=6;overflow=hidden;fontStyle=5" parent="WiR1-KO9exxDyAQfKW_R-99" vertex="1">
          <mxGeometry x="60" width="120" height="30" as="geometry" />
        </mxCell>
        <mxCell id="WiR1-KO9exxDyAQfKW_R-102" value="" style="shape=partialRectangle;collapsible=0;dropTarget=0;pointerEvents=0;fillColor=none;top=0;left=0;bottom=1;right=0;points=[[0,0.5],[1,0.5]];portConstraint=eastwest;strokeColor=none;" parent="WiR1-KO9exxDyAQfKW_R-92" vertex="1">
          <mxGeometry y="120" width="180" height="30" as="geometry" />
        </mxCell>
        <mxCell id="WiR1-KO9exxDyAQfKW_R-103" value="PK2" style="shape=partialRectangle;connectable=0;fillColor=none;top=0;left=0;bottom=0;right=0;fontStyle=1;overflow=hidden;" parent="WiR1-KO9exxDyAQfKW_R-102" vertex="1">
          <mxGeometry width="60" height="30" as="geometry" />
        </mxCell>
        <mxCell id="WiR1-KO9exxDyAQfKW_R-104" value="job_id" style="shape=partialRectangle;connectable=0;fillColor=none;top=0;left=0;bottom=0;right=0;align=left;spacingLeft=6;fontStyle=5;overflow=hidden;" parent="WiR1-KO9exxDyAQfKW_R-102" vertex="1">
          <mxGeometry x="60" width="120" height="30" as="geometry" />
        </mxCell>
        <mxCell id="WiR1-KO9exxDyAQfKW_R-105" value="" style="shape=partialRectangle;collapsible=0;dropTarget=0;pointerEvents=0;fillColor=none;top=0;left=0;bottom=0;right=0;points=[[0,0.5],[1,0.5]];portConstraint=eastwest;strokeColor=none;" parent="WiR1-KO9exxDyAQfKW_R-92" vertex="1">
          <mxGeometry y="150" width="180" height="30" as="geometry" />
        </mxCell>
        <mxCell id="WiR1-KO9exxDyAQfKW_R-106" value="FK3" style="shape=partialRectangle;connectable=0;fillColor=none;top=0;left=0;bottom=0;right=0;editable=1;overflow=hidden;fontStyle=1" parent="WiR1-KO9exxDyAQfKW_R-105" vertex="1">
          <mxGeometry width="60" height="30" as="geometry" />
        </mxCell>
        <mxCell id="WiR1-KO9exxDyAQfKW_R-107" value="department_id" style="shape=partialRectangle;connectable=0;fillColor=none;top=0;left=0;bottom=0;right=0;align=left;spacingLeft=6;overflow=hidden;fontStyle=5" parent="WiR1-KO9exxDyAQfKW_R-105" vertex="1">
          <mxGeometry x="60" width="120" height="30" as="geometry" />
        </mxCell>
        <mxCell id="WiR1-KO9exxDyAQfKW_R-108" value="" style="shape=partialRectangle;collapsible=0;dropTarget=0;pointerEvents=0;fillColor=none;top=0;left=0;bottom=1;right=0;points=[[0,0.5],[1,0.5]];portConstraint=eastwest;strokeColor=none;" parent="WiR1-KO9exxDyAQfKW_R-92" vertex="1">
          <mxGeometry y="180" width="180" height="20" as="geometry" />
        </mxCell>
        <mxCell id="WiR1-KO9exxDyAQfKW_R-109" value="" style="shape=partialRectangle;connectable=0;fillColor=none;top=0;left=0;bottom=0;right=0;fontStyle=1;overflow=hidden;" parent="WiR1-KO9exxDyAQfKW_R-108" vertex="1">
          <mxGeometry width="60" height="20" as="geometry" />
        </mxCell>
        <mxCell id="WiR1-KO9exxDyAQfKW_R-110" value="" style="shape=partialRectangle;connectable=0;fillColor=none;top=0;left=0;bottom=0;right=0;align=left;spacingLeft=6;fontStyle=5;overflow=hidden;" parent="WiR1-KO9exxDyAQfKW_R-108" vertex="1">
          <mxGeometry x="60" width="120" height="20" as="geometry" />
        </mxCell>
        <mxCell id="WiR1-KO9exxDyAQfKW_R-111" value="valentin.jobs" style="shape=table;startSize=30;container=1;collapsible=1;childLayout=tableLayout;fixedRows=1;rowLines=0;fontStyle=1;align=center;resizeLast=1;" parent="1" vertex="1">
          <mxGeometry x="40" y="640" width="180" height="200" as="geometry" />
        </mxCell>
        <mxCell id="WiR1-KO9exxDyAQfKW_R-112" value="" style="shape=partialRectangle;collapsible=0;dropTarget=0;pointerEvents=0;fillColor=none;top=0;left=0;bottom=0;right=0;points=[[0,0.5],[1,0.5]];portConstraint=eastwest;" parent="WiR1-KO9exxDyAQfKW_R-111" vertex="1">
          <mxGeometry y="30" width="180" height="30" as="geometry" />
        </mxCell>
        <mxCell id="WiR1-KO9exxDyAQfKW_R-113" value="PK1" style="shape=partialRectangle;connectable=0;fillColor=none;top=0;left=0;bottom=0;right=0;fontStyle=1;overflow=hidden;" parent="WiR1-KO9exxDyAQfKW_R-112" vertex="1">
          <mxGeometry width="60" height="30" as="geometry" />
        </mxCell>
        <mxCell id="WiR1-KO9exxDyAQfKW_R-114" value="job_id" style="shape=partialRectangle;connectable=0;fillColor=none;top=0;left=0;bottom=0;right=0;align=left;spacingLeft=6;fontStyle=5;overflow=hidden;" parent="WiR1-KO9exxDyAQfKW_R-112" vertex="1">
          <mxGeometry x="60" width="120" height="30" as="geometry" />
        </mxCell>
        <mxCell id="WiR1-KO9exxDyAQfKW_R-115" value="" style="shape=partialRectangle;collapsible=0;dropTarget=0;pointerEvents=0;fillColor=none;top=0;left=0;bottom=1;right=0;points=[[0,0.5],[1,0.5]];portConstraint=eastwest;strokeColor=none;" parent="WiR1-KO9exxDyAQfKW_R-111" vertex="1">
          <mxGeometry y="60" width="180" height="30" as="geometry" />
        </mxCell>
        <mxCell id="WiR1-KO9exxDyAQfKW_R-116" value="PK2" style="shape=partialRectangle;connectable=0;fillColor=none;top=0;left=0;bottom=0;right=0;fontStyle=1;overflow=hidden;" parent="WiR1-KO9exxDyAQfKW_R-115" vertex="1">
          <mxGeometry width="60" height="30" as="geometry" />
        </mxCell>
        <mxCell id="WiR1-KO9exxDyAQfKW_R-117" value="job_title" style="shape=partialRectangle;connectable=0;fillColor=none;top=0;left=0;bottom=0;right=0;align=left;spacingLeft=6;fontStyle=5;overflow=hidden;" parent="WiR1-KO9exxDyAQfKW_R-115" vertex="1">
          <mxGeometry x="60" width="120" height="30" as="geometry" />
        </mxCell>
        <mxCell id="WiR1-KO9exxDyAQfKW_R-118" value="" style="shape=partialRectangle;collapsible=0;dropTarget=0;pointerEvents=0;fillColor=none;top=0;left=0;bottom=0;right=0;points=[[0,0.5],[1,0.5]];portConstraint=eastwest;" parent="WiR1-KO9exxDyAQfKW_R-111" vertex="1">
          <mxGeometry y="90" width="180" height="30" as="geometry" />
        </mxCell>
        <mxCell id="WiR1-KO9exxDyAQfKW_R-119" value="FK1" style="shape=partialRectangle;connectable=0;fillColor=none;top=0;left=0;bottom=0;right=0;editable=1;overflow=hidden;fontStyle=1" parent="WiR1-KO9exxDyAQfKW_R-118" vertex="1">
          <mxGeometry width="60" height="30" as="geometry" />
        </mxCell>
        <mxCell id="WiR1-KO9exxDyAQfKW_R-120" value="min_salary" style="shape=partialRectangle;connectable=0;fillColor=none;top=0;left=0;bottom=0;right=0;align=left;spacingLeft=6;overflow=hidden;fontStyle=1" parent="WiR1-KO9exxDyAQfKW_R-118" vertex="1">
          <mxGeometry x="60" width="120" height="30" as="geometry" />
        </mxCell>
        <mxCell id="WiR1-KO9exxDyAQfKW_R-121" value="" style="shape=partialRectangle;collapsible=0;dropTarget=0;pointerEvents=0;fillColor=none;top=0;left=0;bottom=1;right=0;points=[[0,0.5],[1,0.5]];portConstraint=eastwest;strokeColor=none;" parent="WiR1-KO9exxDyAQfKW_R-111" vertex="1">
          <mxGeometry y="120" width="180" height="30" as="geometry" />
        </mxCell>
        <mxCell id="WiR1-KO9exxDyAQfKW_R-122" value="PK2" style="shape=partialRectangle;connectable=0;fillColor=none;top=0;left=0;bottom=0;right=0;fontStyle=1;overflow=hidden;" parent="WiR1-KO9exxDyAQfKW_R-121" vertex="1">
          <mxGeometry width="60" height="30" as="geometry" />
        </mxCell>
        <mxCell id="WiR1-KO9exxDyAQfKW_R-123" value="max_salary" style="shape=partialRectangle;connectable=0;fillColor=none;top=0;left=0;bottom=0;right=0;align=left;spacingLeft=6;fontStyle=5;overflow=hidden;" parent="WiR1-KO9exxDyAQfKW_R-121" vertex="1">
          <mxGeometry x="60" width="120" height="30" as="geometry" />
        </mxCell>
        <mxCell id="WiR1-KO9exxDyAQfKW_R-124" value="" style="shape=partialRectangle;collapsible=0;dropTarget=0;pointerEvents=0;fillColor=none;top=0;left=0;bottom=0;right=0;points=[[0,0.5],[1,0.5]];portConstraint=eastwest;strokeColor=none;" parent="WiR1-KO9exxDyAQfKW_R-111" vertex="1">
          <mxGeometry y="150" width="180" height="30" as="geometry" />
        </mxCell>
        <mxCell id="WiR1-KO9exxDyAQfKW_R-125" value="" style="shape=partialRectangle;connectable=0;fillColor=none;top=0;left=0;bottom=0;right=0;editable=1;overflow=hidden;fontStyle=1" parent="WiR1-KO9exxDyAQfKW_R-124" vertex="1">
          <mxGeometry width="60" height="30" as="geometry" />
        </mxCell>
        <mxCell id="WiR1-KO9exxDyAQfKW_R-126" value="" style="shape=partialRectangle;connectable=0;fillColor=none;top=0;left=0;bottom=0;right=0;align=left;spacingLeft=6;overflow=hidden;fontStyle=5" parent="WiR1-KO9exxDyAQfKW_R-124" vertex="1">
          <mxGeometry x="60" width="120" height="30" as="geometry" />
        </mxCell>
        <mxCell id="WiR1-KO9exxDyAQfKW_R-127" value="" style="shape=partialRectangle;collapsible=0;dropTarget=0;pointerEvents=0;fillColor=none;top=0;left=0;bottom=1;right=0;points=[[0,0.5],[1,0.5]];portConstraint=eastwest;strokeColor=none;" parent="WiR1-KO9exxDyAQfKW_R-111" vertex="1">
          <mxGeometry y="180" width="180" height="20" as="geometry" />
        </mxCell>
        <mxCell id="WiR1-KO9exxDyAQfKW_R-128" value="" style="shape=partialRectangle;connectable=0;fillColor=none;top=0;left=0;bottom=0;right=0;fontStyle=1;overflow=hidden;" parent="WiR1-KO9exxDyAQfKW_R-127" vertex="1">
          <mxGeometry width="60" height="20" as="geometry" />
        </mxCell>
        <mxCell id="WiR1-KO9exxDyAQfKW_R-129" value="" style="shape=partialRectangle;connectable=0;fillColor=none;top=0;left=0;bottom=0;right=0;align=left;spacingLeft=6;fontStyle=5;overflow=hidden;" parent="WiR1-KO9exxDyAQfKW_R-127" vertex="1">
          <mxGeometry x="60" width="120" height="20" as="geometry" />
        </mxCell>
        <mxCell id="vzs2PNzTdRuXuxr17RDE-1" value="" style="edgeStyle=entityRelationEdgeStyle;fontSize=12;html=1;endArrow=ERoneToMany;" edge="1" parent="1">
          <mxGeometry width="100" height="100" relative="1" as="geometry">
            <mxPoint x="630" y="400" as="sourcePoint" />
            <mxPoint x="720" y="280" as="targetPoint" />
          </mxGeometry>
        </mxCell>
        <mxCell id="vzs2PNzTdRuXuxr17RDE-3" value="" style="edgeStyle=entityRelationEdgeStyle;fontSize=12;html=1;endArrow=ERoneToMany;verticalAlign=top;entryX=1.002;entryY=-0.127;entryDx=0;entryDy=0;entryPerimeter=0;exitX=0;exitY=0.5;exitDx=0;exitDy=0;" edge="1" parent="1" source="WiR1-KO9exxDyAQfKW_R-26" target="WiR1-KO9exxDyAQfKW_R-49">
          <mxGeometry width="100" height="100" relative="1" as="geometry">
            <mxPoint x="590" y="370" as="sourcePoint" />
            <mxPoint x="500" y="330" as="targetPoint" />
          </mxGeometry>
        </mxCell>
        <mxCell id="vzs2PNzTdRuXuxr17RDE-4" value="" style="edgeStyle=entityRelationEdgeStyle;fontSize=12;html=1;endArrow=ERoneToMany;entryX=0.5;entryY=0;entryDx=0;entryDy=0;exitX=0.433;exitY=0.99;exitDx=0;exitDy=0;exitPerimeter=0;" edge="1" parent="1" source="WiR1-KO9exxDyAQfKW_R-52" target="WiR1-KO9exxDyAQfKW_R-55">
          <mxGeometry width="100" height="100" relative="1" as="geometry">
            <mxPoint x="362" y="280" as="sourcePoint" />
            <mxPoint x="500" y="330" as="targetPoint" />
          </mxGeometry>
        </mxCell>
        <mxCell id="vzs2PNzTdRuXuxr17RDE-5" value="" style="edgeStyle=entityRelationEdgeStyle;fontSize=12;html=1;endArrow=ERoneToMany;" edge="1" parent="1">
          <mxGeometry width="100" height="100" relative="1" as="geometry">
            <mxPoint x="220" y="760" as="sourcePoint" />
            <mxPoint x="320" y="660" as="targetPoint" />
          </mxGeometry>
        </mxCell>
        <mxCell id="vzs2PNzTdRuXuxr17RDE-7" value="" style="edgeStyle=entityRelationEdgeStyle;fontSize=12;html=1;endArrow=ERoneToMany;exitX=0.5;exitY=0;exitDx=0;exitDy=0;entryX=0.631;entryY=1.11;entryDx=0;entryDy=0;entryPerimeter=0;" edge="1" parent="1" source="WiR1-KO9exxDyAQfKW_R-111" target="WiR1-KO9exxDyAQfKW_R-108">
          <mxGeometry width="100" height="100" relative="1" as="geometry">
            <mxPoint x="100" y="634.5" as="sourcePoint" />
            <mxPoint x="180" y="540" as="targetPoint" />
          </mxGeometry>
        </mxCell>
        <mxCell id="vzs2PNzTdRuXuxr17RDE-8" value="" style="edgeStyle=entityRelationEdgeStyle;fontSize=12;html=1;endArrow=ERoneToMany;entryX=0.5;entryY=0;entryDx=0;entryDy=0;exitX=0.02;exitY=-0.06;exitDx=0;exitDy=0;exitPerimeter=0;" edge="1" parent="1" source="WiR1-KO9exxDyAQfKW_R-46" target="WiR1-KO9exxDyAQfKW_R-92">
          <mxGeometry width="100" height="100" relative="1" as="geometry">
            <mxPoint x="110" y="200" as="sourcePoint" />
            <mxPoint x="200" y="180" as="targetPoint" />
          </mxGeometry>
        </mxCell>
      </root>
    </mxGraphModel>
  </diagram>
</mxfile>
